<svg width="21" height="21" viewBox="0 0 21 21" fill="none" xmlns="http://www.w3.org/2000/svg">
<path d="M8.01256 18.175V15.4916C8.01255 14.8091 8.56898 14.2545 9.25839 14.2499H11.7837C12.4764 14.2499 13.0379 14.8058 13.0379 15.4916V15.4916V18.1833C13.0378 18.7628 13.505 19.2364 14.0902 19.25H15.7737C17.452 19.25 18.8125 17.9031 18.8125 16.2416V16.2416V8.60811C18.8035 7.95447 18.4935 7.34068 17.9707 6.9414L12.213 2.34964C11.2043 1.55012 9.77043 1.55012 8.76174 2.34964L3.02927 6.94974C2.50448 7.34739 2.19396 7.96221 2.1875 8.61644V16.2416C2.1875 17.9031 3.54802 19.25 5.2263 19.25H6.90984C7.50956 19.25 7.99573 18.7687 7.99573 18.175V18.175" stroke="white" stroke-width="1.5" stroke-linecap="round" stroke-linejoin="round"/>
</svg>
