<svg width="21" height="21" viewBox="0 0 21 21" fill="none" xmlns="http://www.w3.org/2000/svg">
<path fill-rule="evenodd" clip-rule="evenodd" d="M6.49452 17.3428C6.86377 17.3428 7.16389 17.6429 7.16389 18.0121C7.16389 18.3814 6.86377 18.6806 6.49452 18.6806C6.12527 18.6806 5.82602 18.3814 5.82602 18.0121C5.82602 17.6429 6.12527 17.3428 6.49452 17.3428Z" stroke="white" stroke-width="1.5" stroke-linecap="round" stroke-linejoin="round"/>
<path fill-rule="evenodd" clip-rule="evenodd" d="M16.3404 17.3428C16.7096 17.3428 17.0097 17.6429 17.0097 18.0121C17.0097 18.3814 16.7096 18.6806 16.3404 18.6806C15.9711 18.6806 15.671 18.3814 15.671 18.0121C15.671 17.6429 15.9711 17.3428 16.3404 17.3428Z" stroke="white" stroke-width="1.5" stroke-linecap="round" stroke-linejoin="round"/>
<path d="M2.40617 2.84375L4.22617 3.15875L5.06879 13.1976C5.13704 14.0158 5.82042 14.644 6.64117 14.644H16.1892C16.9732 14.644 17.6382 14.0682 17.751 13.2912L18.5814 7.553C18.6838 6.84512 18.1352 6.21162 17.4203 6.21162H4.51842" stroke="white" stroke-width="1.5" stroke-linecap="round" stroke-linejoin="round"/>
<path d="M12.3597 9.44562H14.7861" stroke="white" stroke-width="1.5" stroke-linecap="round" stroke-linejoin="round"/>
</svg>
