<svg width="21" height="21" viewBox="0 0 21 21" fill="none" xmlns="http://www.w3.org/2000/svg">
<path fill-rule="evenodd" clip-rule="evenodd" d="M14.2498 1.75H17.1081C18.2907 1.75 19.25 2.71766 19.25 3.91141V6.79359C19.25 7.98643 18.2907 8.955 17.1081 8.955H14.2498C13.0663 8.955 12.107 7.98643 12.107 6.79359V3.91141C12.107 2.71766 13.0663 1.75 14.2498 1.75Z" stroke="white" stroke-width="1.5" stroke-linecap="round" stroke-linejoin="round"/>
<path fill-rule="evenodd" clip-rule="evenodd" d="M3.89281 1.75H6.75018C7.93365 1.75 8.89299 2.71766 8.89299 3.91141V6.79359C8.89299 7.98643 7.93365 8.955 6.75018 8.955H3.89281C2.70933 8.955 1.75 7.98643 1.75 6.79359V3.91141C1.75 2.71766 2.70933 1.75 3.89281 1.75Z" stroke="white" stroke-width="1.5" stroke-linecap="round" stroke-linejoin="round"/>
<path fill-rule="evenodd" clip-rule="evenodd" d="M3.89281 12.045H6.75018C7.93365 12.045 8.89299 13.0127 8.89299 14.2073V17.0886C8.89299 18.2824 7.93365 19.25 6.75018 19.25H3.89281C2.70933 19.25 1.75 18.2824 1.75 17.0886V14.2073C1.75 13.0127 2.70933 12.045 3.89281 12.045Z" stroke="white" stroke-width="1.5" stroke-linecap="round" stroke-linejoin="round"/>
<path fill-rule="evenodd" clip-rule="evenodd" d="M14.2498 12.045H17.1081C18.2907 12.045 19.25 13.0127 19.25 14.2073V17.0886C19.25 18.2824 18.2907 19.25 17.1081 19.25H14.2498C13.0663 19.25 12.107 18.2824 12.107 17.0886V14.2073C12.107 13.0127 13.0663 12.045 14.2498 12.045Z" stroke="white" stroke-width="1.5" stroke-linecap="round" stroke-linejoin="round"/>
</svg>
