<svg width="21" height="21" viewBox="0 0 21 21" fill="none" xmlns="http://www.w3.org/2000/svg">
<path fill-rule="evenodd" clip-rule="evenodd" d="M12.3561 9.82898H14.778C15.1452 9.82898 15.4337 9.52538 15.4337 9.15927C15.4337 8.78423 15.1452 8.48956 14.778 8.48956H12.3561C11.9889 8.48956 11.7004 8.78423 11.7004 9.15927C11.7004 9.52538 11.9889 9.82898 12.3561 9.82898ZM17.6545 5.18656C18.1878 5.18656 18.5376 5.37407 18.8873 5.78483C19.237 6.19558 19.2982 6.78493 19.2195 7.3198L18.3889 13.1775C18.2316 14.3035 17.2873 15.1331 16.1769 15.1331H6.63809C5.47525 15.1331 4.5135 14.2232 4.41732 13.0445L3.61295 3.31048L2.29273 3.07831C1.943 3.01581 1.69819 2.66756 1.75939 2.31038C1.82059 1.94516 2.16158 1.70318 2.52005 1.75765L4.6053 2.07821C4.90257 2.13268 5.12115 2.38181 5.14738 2.68542L5.3135 4.68561C5.33973 4.97225 5.56705 5.18656 5.84683 5.18656H17.6545ZM6.49802 16.5444C5.7636 16.5444 5.16906 17.1516 5.16906 17.9017C5.16906 18.6428 5.7636 19.25 6.49802 19.25C7.22371 19.25 7.81824 18.6428 7.81824 17.9017C7.81824 17.1516 7.22371 16.5444 6.49802 16.5444ZM16.3341 16.5444C15.5997 16.5444 15.0051 17.1516 15.0051 17.9017C15.0051 18.6428 15.5997 19.25 16.3341 19.25C17.0598 19.25 17.6543 18.6428 17.6543 17.9017C17.6543 17.1516 17.0598 16.5444 16.3341 16.5444Z" fill="#4E7FFF"/>
</svg>
