<svg width="21" height="21" viewBox="0 0 21 21" fill="none" xmlns="http://www.w3.org/2000/svg">
<path d="M16.9093 8.28467C16.9093 8.28467 16.4342 14.1778 16.1586 16.6602C16.0273 17.8458 15.2949 18.5405 14.0953 18.5624C11.8124 18.6035 9.52694 18.6062 7.24494 18.558C6.09081 18.5344 5.37069 17.8309 5.24206 16.6663C4.96469 14.162 4.49219 8.28467 4.49219 8.28467" stroke="#200E32" stroke-width="1.5" stroke-linecap="round" stroke-linejoin="round"/>
<path d="M18.1197 5.45975H3.28143" stroke="#200E32" stroke-width="1.5" stroke-linecap="round" stroke-linejoin="round"/>
<path d="M15.2605 5.45974C14.5736 5.45974 13.9821 4.97411 13.8474 4.30124L13.6348 3.23724C13.5035 2.74636 13.059 2.40686 12.5524 2.40686H8.84851C8.34188 2.40686 7.89738 2.74636 7.76613 3.23724L7.55351 4.30124C7.41876 4.97411 6.82726 5.45974 6.14038 5.45974" stroke="#200E32" stroke-width="1.5" stroke-linecap="round" stroke-linejoin="round"/>
</svg>
