<svg width="21" height="21" viewBox="0 0 21 21" fill="none" xmlns="http://www.w3.org/2000/svg">
<path fill-rule="evenodd" clip-rule="evenodd" d="M3.97241 1.75H6.92991C8.16366 1.75 9.15241 2.75625 9.15241 3.99088V6.97375C9.15241 8.21625 8.16366 9.21375 6.92991 9.21375H3.97241C2.74741 9.21375 1.74991 8.21625 1.74991 6.97375V3.99088C1.74991 2.75625 2.74741 1.75 3.97241 1.75ZM3.97241 11.786H6.92991C8.16366 11.786 9.15241 12.7844 9.15241 14.0269V17.0097C9.15241 18.2435 8.16366 19.2497 6.92991 19.2497H3.97241C2.74741 19.2497 1.74991 18.2435 1.74991 17.0097V14.0269C1.74991 12.7844 2.74741 11.786 3.97241 11.786ZM17.0275 1.75H14.07C12.8363 1.75 11.8475 2.75625 11.8475 3.99088V6.97375C11.8475 8.21625 12.8363 9.21375 14.07 9.21375H17.0275C18.2525 9.21375 19.25 8.21625 19.25 6.97375V3.99088C19.25 2.75625 18.2525 1.75 17.0275 1.75ZM14.07 11.786H17.0275C18.2525 11.786 19.25 12.7844 19.25 14.0269V17.0097C19.25 18.2435 18.2525 19.2497 17.0275 19.2497H14.07C12.8363 19.2497 11.8475 18.2435 11.8475 17.0097V14.0269C11.8475 12.7844 12.8363 11.786 14.07 11.786Z" fill="#4E7FFF"/>
</svg>
