<svg width="21" height="21" viewBox="0 0 21 21" fill="none" xmlns="http://www.w3.org/2000/svg">
<ellipse cx="10.1316" cy="6.36828" rx="4.18078" ry="4.18078" stroke="white" stroke-width="1.5" stroke-linecap="round" stroke-linejoin="round"/>
<path fill-rule="evenodd" clip-rule="evenodd" d="M3.50001 16.3637C3.49889 16.0698 3.56462 15.7795 3.69223 15.5147C4.09269 14.7138 5.22198 14.2893 6.15905 14.0971C6.83487 13.9529 7.52002 13.8565 8.2094 13.8088C9.48573 13.6967 10.7694 13.6967 12.0458 13.8088C12.7351 13.8571 13.4202 13.9534 14.0961 14.0971C15.0332 14.2893 16.1625 14.6738 16.5629 15.5147C16.8196 16.0544 16.8196 16.681 16.5629 17.2207C16.1625 18.0616 15.0332 18.4461 14.0961 18.6303C13.4211 18.7805 12.7357 18.8796 12.0458 18.9266C11.0069 19.0147 9.96326 19.0308 8.92221 18.9747C8.68194 18.9747 8.44967 18.9747 8.2094 18.9266C7.52205 18.8801 6.83928 18.7811 6.16706 18.6303C5.22198 18.4461 4.1007 18.0616 3.69223 17.2207C3.56527 16.9529 3.49961 16.6601 3.50001 16.3637Z" stroke="white" stroke-width="1.5" stroke-linecap="round" stroke-linejoin="round"/>
</svg>
